# xmcd
#
# Track frame offsets:
#	150
#	18994
#	39081
#	54249
#	71513
#	89214
#	104344
#	121139
#	140299
#	157200
#	177250
#	194845
#	213378
#	230631
#	247818
#
# Disc length: 3531 seconds
#
# Revision: 1
# Processed by: cddbd v1.5.2PL0 Copyright (c) Steve Scherf et al.
# Submitted via: audiograbber 1.83.01
#
DISCID=d10dc90f
DTITLE=Various Artist - CBCDG60199
DYEAR=2000
DGENRE=Karaoke
TTITLE0=Hank Williams Jr. - Naked Women And Beer
TTITLE1=Trisha Yearwood - You're Where I Belong
TTITLE2=Charlie Robison - Poor Man's Son
TTITLE3=Mark Wills - Almost Doesn't Count
TTITLE4=Lace - You Could've Had me
TTITLE5=Garth Brooks - I Don't Have To Wonder
TTITLE6=Rambler - Dreamin'
TTITLE7=Kathy Mattea - Trouble With Angels
TTITLE8=Tracy Byrd - Love, You Aint Seen The Last Of Me Yet
TTITLE9=Tim McGraw - Some Things Never Change
TTITLE10=Le Ann Rimes - I Need You
TTITLE11=Mark Chesnutt - Fallin' Never Felt So Good
TTITLE12=Montgomery Gentry - Self Made Man
TTITLE13=Tammy Cochran - If You Can
TTITLE14=Lonestar - What About Now
EXTD=
EXTT0=
EXTT1=
EXTT2=
EXTT3=
EXTT4=
EXTT5=
EXTT6=
EXTT7=
EXTT8=
EXTT9=
EXTT10=
EXTT11=
EXTT12=
EXTT13=
EXTT14=
PLAYORDER=
